<svg width="16" height="16" viewBox="0 0 16 16" fill="none" xmlns="http://www.w3.org/2000/svg">
<g opacity="0.5" clip-path="url(#clip0)">
<path d="M15.8935 6.97005L14.1354 3.41844C13.8335 2.79691 13.212 2.40623 12.5017 2.40623H3.48058C2.77026 2.40623 2.16648 2.77915 1.84684 3.41844L0.0887902 6.95229C0.0355161 7.05884 0 7.18315 0 7.2897V12.0666C0 12.9012 0.674806 13.5938 1.52719 13.5938H14.4728C15.3074 13.5938 16 12.919 16 12.0666V7.30746C15.9822 7.18315 15.9467 7.05884 15.8935 6.97005ZM11.081 6.54386C10.7259 6.54386 10.424 6.79247 10.3352 7.14763C10.3174 7.21867 9.90899 9.11878 7.97336 9.11878C6.09101 9.11878 5.66482 7.36073 5.61154 7.14763C5.54051 6.79247 5.23862 6.54386 4.8657 6.54386H1.9889L3.21421 4.09325C3.26748 4.00446 3.37403 3.91567 3.48058 3.91567H12.5017C12.6082 3.91567 12.7148 3.96894 12.768 4.09325L13.9756 6.54386H11.081Z" fill="#E4E4EE"/>
</g>
<defs>
<clipPath id="clip0">
<rect width="15" height="16" fill="white" transform="translate(0.5)"/>
</clipPath>
</defs>
</svg>
