<svg width="16" height="16" viewBox="0 0 16 16" fill="none" xmlns="http://www.w3.org/2000/svg">
<g opacity="0.5" clip-path="url(#clip0)">
<path d="M8.64285 4.17862V8.10718L12.0057 10.1029L12.5714 9.14826L9.82142 7.51789V4.17862H8.64285Z" fill="white"/>
<path d="M9.42463 0.25C5.51571 0.25 2.35714 3.41642 2.35714 7.32143H0L3.06034 10.3818L3.11533 10.4957L6.28573 7.32143H3.92858C3.92858 4.28465 6.3918 1.82144 9.42857 1.82144C12.4653 1.82144 14.9286 4.28465 14.9286 7.32143C14.9286 10.3582 12.4653 12.8214 9.42857 12.8214C7.90821 12.8214 6.53713 12.2007 5.54323 11.2068L4.43143 12.3186C5.70823 13.5993 7.47214 14.3929 9.42463 14.3929C13.3336 14.3929 16.5 11.2264 16.5 7.32143C16.5 3.41642 13.3336 0.25 9.42463 0.25Z" fill="white"/>
</g>
<defs>
<clipPath id="clip0">
<rect width="16" height="16" fill="white"/>
</clipPath>
</defs>
</svg>
